<?xml version="1.0" encoding="UTF-8"?>
<svg id="Layer_1" data-name="Layer 1" xmlns="http://www.w3.org/2000/svg" viewBox="0 0 717.3 438.96">
  <defs>
    <style>
      .cls-1 {
        fill: #5c0072;
      }

      .cls-2 {
        fill: #331e3c;
      }

      .cls-3 {
        fill: #2f1d41;
      }

      .cls-4 {
        fill: #3a1e45;
      }

      .cls-5 {
        fill: #361e40;
      }

      .cls-6 {
        fill: #351943;
      }

      .cls-7 {
        fill: #261e29;
      }

      .cls-8 {
        fill: #310c37;
      }

      .cls-9 {
        fill: #38233d;
      }

      .cls-10 {
        fill: #592470;
      }

      .cls-11 {
        fill: #2a1437;
      }

      .cls-12 {
        fill: #311e39;
      }

      .cls-13 {
        fill: #221c25;
      }

      .cls-14 {
        fill: #371940;
      }

      .cls-15 {
        fill: #381e43;
      }

      .cls-16 {
        fill: #3e1e4b;
      }

      .cls-17 {
        fill: #421459;
      }

      .cls-18 {
        fill: #341e3e;
      }

      .cls-19 {
        fill: #782c99;
      }

      .cls-20 {
        fill: #41224f;
      }

      .cls-21 {
        fill: #311e3a;
      }

      .cls-22 {
        fill: #2d1d50;
      }

      .cls-23 {
        fill: #3b1f47;
      }

      .cls-24 {
        fill: #41204f;
      }

      .cls-25 {
        fill: #351e3f;
      }

      .cls-26 {
        fill: #471f58;
      }

      .cls-27 {
        fill: #331e3d;
      }

      .cls-28 {
        fill: #3e1e4c;
      }

      .cls-29 {
        fill: #3a1f46;
      }

      .cls-30 {
        fill: #452054;
      }

      .cls-31 {
        fill: #351e40;
      }

      .cls-32 {
        fill: #4a235b;
      }

      .cls-33 {
        fill: #301e38;
      }

      .cls-34 {
        fill: #522167;
      }

      .cls-35 {
        fill: #33143b;
      }

      .cls-36 {
        fill: #321e3c;
      }

      .cls-37 {
        fill: #461e57;
      }

      .cls-38 {
        fill: #4f2063;
      }

      .cls-39 {
        fill: #840ea0;
      }

      .cls-40 {
        fill: #422051;
      }

      .cls-41 {
        fill: #3b1e47;
      }

      .cls-42 {
        fill: #401e4f;
      }

      .cls-43 {
        fill: #49205b;
      }

      .cls-44 {
        fill: #441f54;
      }

      .cls-45 {
        fill: #4d2160;
      }

      .cls-46 {
        fill: #2e1e35;
      }

      .cls-47 {
        fill: #341849;
      }

      .cls-48 {
        fill: #431e53;
      }

      .cls-49 {
        fill: #40204d;
      }

      .cls-50 {
        fill: #341e3d;
      }

      .cls-51 {
        fill: #321e3b;
      }

      .cls-52 {
        fill: #301e37;
      }

      .cls-53 {
        fill: #451e56;
      }

      .cls-54 {
        fill: #471f57;
      }

      .cls-55 {
        fill: #56246c;
      }

      .cls-56 {
        fill: #451d56;
      }

      .cls-57 {
        fill: #361e41;
      }

      .cls-58 {
        fill: #3e204a;
      }

      .cls-59 {
        fill: #351e3e;
      }

      .cls-60 {
        fill: #321e3a;
      }

      .cls-61 {
        fill: #491f5b;
      }

      .cls-62 {
        fill: #4e2161;
      }

      .cls-63 {
        fill: #4b235d;
      }

      .cls-64 {
        fill: #422050;
      }
    </style>
  </defs>
  <path class="cls-39" d="m233.54,11.39c1.07.27,2.14.53,3.24.81,3.13.78,6.26,1.58,9.38,2.38.93.24,1.86.48,2.82.72,5.34,1.4,10.41,3.1,15.56,5.09,1.81.56,3.62,1.1,5.44,1.62,11.01,3.33,21.77,7.41,32.56,11.38.72.26,1.45.53,2.19.8,6.98,2.57,13.7,5.49,20.43,8.67,3.56,1.61,7.17,3.06,10.82,4.47,6.24,2.44,12.19,5.28,18.15,8.34,3.33,1.68,6.7,3.25,10.1,4.79,4.87,2.23,9.58,4.64,14.26,7.25,3.7,2.05,7.44,4.02,11.18,6,.72.38,1.45.77,2.19,1.16,3.67,1.94,7.35,3.87,11.03,5.79,11.57,6.03,22.83,12.44,33.66,19.74.99.66,1.98,1.32,3,2v2c.59.16,1.18.32,1.79.48,5.28,1.56,8.66,3.08,12.21,7.52.33.99.66,1.98,1,3h2c2.57,3.16,4.75,6.61,7,10q.73,1.09,1.46,2.2c4.29,6.64,6.93,13.74,9.57,21.15.63,1.72,1.29,3.42,1.99,5.11,1.45,3.78,2.27,7.67,3.19,11.6q.7,2.89,1.78,5.34c1.27,3.3,1.9,6.63,2.5,10.09.13.73.25,1.46.38,2.21,1,6.05,1.71,12.12,2.3,18.23.08.85.17,1.7.25,2.58,1.34,14.88.02,29.17-4.44,43.48.71.12,1.43.24,2.16.36,2.94.66,5.45,1.63,8.21,2.82,9.47,4.03,18.97,7.92,28.69,11.31,5.93,2.08,11.66,4.5,17.42,7.02,4.59,1.93,9.26,3.58,13.97,5.2,3.6,1.29,7.14,2.7,10.68,4.13,16.04,6.42,32.13,12.78,48.86,17.15.67.18,1.35.36,2.04.55,8.92,2.4,17.8,4.19,26.96,5.45.98.21,1.95.42,2.96.64,3.55.42,6.09-.12,9.54-1.01,12.29-3.13,23.06-3.23,34.43,3.14.68.41,1.36.81,2.07,1.23,1.03.56,2.06,1.11,3.12,1.69.62.43,1.24.87,1.88,1.31v2h2v2q.91.38,1.83.77c7.27,4.14,12.3,17.08,14.77,24.76,2.88,10.65,2.8,21.42,2.34,32.38q-.03,2.12.59,4.23c.66,2.7-.3,4.17-1.42,6.68-2.37,6.01-2.64,11.63-2.75,18q-.37,3.19-1.52,5-1.85,1.19-4.77,2.02c-3.93,1.49-5.05,3.31-7.33,6.79-1.21,1.82-2.45,3.62-3.75,5.38h-2c-.27.6-.54,1.2-.81,1.81-2.22,4.09-5.19,5.92-9.19,8.19-1.09.64-2.19,1.28-3.31,1.94-1.23.69-2.46,1.38-3.69,2.06-.63.35-1.26.71-1.91,1.07-10.35,5.53-23.25,6.96-34.65,3.92-12.92-5.28-22.79-14.76-29.44-27v-2c-.54.2-1.08.39-1.64.59-11.03,1.9-27.56-8.86-36.89-14.23-2.61-1.43-5.26-2.74-7.94-4.05-10.52-5.14-20.79-10.81-30.54-17.31v-2c-.68-.08-1.36-.17-2.06-.25-3.81-.97-6.58-2.71-9.94-4.75v-2c-.83-.08-1.65-.17-2.5-.25-4.25-.91-7.7-2.73-11.5-4.75-1.83-.92-3.66-1.84-5.5-2.75-3.52-1.76-7.04-3.52-10.55-5.31-.7-.35-1.39-.71-2.11-1.07-1.35-.69-2.71-1.38-4.06-2.07-4.5-2.27-9.04-4.1-13.78-5.8v-2q-1.08-.18-2.17-.36c-2.94-.67-5.35-1.67-8.08-2.96-.95-.44-1.91-.89-2.89-1.34-.94-.44-1.89-.89-2.86-1.34-1.68-.78-3.37-1.55-5.06-2.31-.71-.33-1.43-.65-2.16-.99q-1.77-.82-3.78-.7-1.28,1.56-2.5,3.5t-2.5,3.5h-2v2h-2c-.33,1.65-.66,3.3-1,5h-2v2h-2c-.27.64-.54,1.28-.81,1.94q-1.19,2.06-4.19,3.06c-.33.99-.66,1.98-1,3q-3.44,3-6,3-.31.84-.62,1.69c-1.89,3.19-4.49,5.02-7.38,7.31-.45.48-.91.96-1.38,1.45-2.05,1.95-4.26,3.29-6.69,4.73-.88.53-1.76,1.06-2.66,1.61q-2.28,1.21-4.28,1.21v2q-17.86,10.14-27,12v2c-.65.18-1.3.36-1.98.55q-5.57,1.59-10.84,3.95c-4.33,2.04-8.78,2.87-13.46,3.85q-2.63.37-3.73,1.65c-1.5.22-3.02.37-4.53.5-.95.08-1.9.16-2.87.25-1.02.08-2.04.17-3.1.25-1.04.09-2.08.17-3.15.26-3.12.25-6.23.5-9.35.74-.86.07-1.72.14-2.61.2q-20.71,1.58-26.39-2.2-2.04-.51-4.27-.78-1.24-.18-2.5-.36c-.86-.12-1.72-.23-2.6-.36-5.17-.71-9.81-1.39-14.62-3.5-2.36-.53-4.72-.93-7.11-1.34-4.07-.93-7.95-2.29-11.89-3.66-.79-.28-1.59-.55-2.4-.84-2.47-.86-4.94-1.73-7.41-2.6-5.63-1.98-11.26-3.93-16.94-5.75-4.01-1.32-7.64-2.92-11.36-4.89-1.94-.94-3.83-1.56-5.89-2.17-6.71-2.12-12.86-5.57-19.1-8.78-2.62-1.34-5.26-2.66-7.9-3.97-1.33-.67-2.67-1.33-4-2v-2c-2.31-.33-4.62-.66-7-1v-2q-4.95-1.48-10-3v-2c-1.65-.33-3.3-.66-5-1v-2c-.84-.09-1.68-.18-2.54-.28-3.98-.83-7.27-2.41-10.84-4.29q-.96-.49-1.94-1c-1.56-.81-3.12-1.62-4.68-2.44v-2c-.67-.09-1.34-.18-2.04-.27-3.76-.92-6.99-2.58-10.4-4.35-1.42-.72-2.83-1.44-4.25-2.16-.71-.37-1.43-.73-2.16-1.11-3.37-1.72-6.76-3.41-10.15-5.1l-6-3v-2c-2.31-.66-4.62-1.32-7-2v-2q-.99-.31-2-.62c-3.36-1.54-5.93-3.49-8.83-5.74-2.15-1.62-4.35-3.11-6.61-4.57-4.04-2.65-7.84-5.54-11.62-8.55-1.6-1.24-3.26-2.39-4.95-3.52v-2c-.56-.23-1.11-.45-1.69-.69-2.95-1.68-4.94-3.89-7.31-6.31q-1.39-1.08-2.81-2.19c-.72-.6-1.44-1.2-2.19-1.81v-2h-2c-.23-.52-.46-1.04-.7-1.57-1.63-3.48-2.96-6.09-5.74-8.8-3.61-3.7-5.4-7.97-7.56-12.62-1.85-3.79-3.66-7.49-6-11-.45-1.59-.89-3.18-1.31-4.78q-.67-2.29-1.75-4.69C-1.2,204.45-1.78,167.14,6.54,136.39c.2-.73.39-1.46.59-2.22,2.62-9.67,5.72-19.04,9.59-28.28.33-.79.67-1.59,1.01-2.41,1.62-3.74,3.25-6.89,5.8-10.09.72-1.44,1.4-2.9,2.06-4.38,5.13-10.48,12.97-21.15,20.94-29.62h2v-2h2c.1-.64.21-1.28.31-1.94.23-.68.45-1.36.69-2.06.99-.33,1.98-.66,3-1,.33-.99.66-1.98,1-3q2.21-2.04,4.94-4.19,1.34-1.07,2.71-2.17,2.35-1.64,4.35-1.64v-2h2c.26-.6.51-1.2.78-1.82,3.15-5.62,10.08-8.81,15.6-11.76,2.65-1.44,5.24-2.95,7.84-4.47,4.78-2.79,9.46-5.49,14.74-7.25,2.68-.92,5.25-2.03,7.86-3.14,2.06-.86,4.12-1.71,6.19-2.56.86-.36,1.73-.73,2.62-1.11,34.4-13.64,73.97-4.53,108.38,4.11Z"/>
  <ellipse class="cls-1" cx="351.64" cy="247.76" rx="169.63" ry="107.84" transform="translate(-31.68 442.95) rotate(-62.15)"/>
  <path class="cls-13" d="m232.54,11.08c1.07.27,2.14.53,3.24.81,3.13.78,6.26,1.58,9.38,2.38.93.24,1.86.48,2.82.72,5.34,1.4,10.41,3.1,15.56,5.09,1.81.56,3.62,1.1,5.44,1.62,11.01,3.33,21.77,7.41,32.56,11.38.72.26,1.45.53,2.19.8,6.98,2.57,13.7,5.49,20.43,8.67,3.56,1.61,7.17,3.06,10.82,4.47,6.24,2.44,12.19,5.28,18.15,8.34,3.33,1.68,6.7,3.25,10.1,4.79,4.87,2.23,9.58,4.64,14.26,7.25,3.7,2.05,7.44,4.02,11.18,6,.72.38,1.45.77,2.19,1.16,3.67,1.94,7.35,3.87,11.03,5.79,11.57,6.03,22.83,12.44,33.66,19.74.99.66,1.98,1.32,3,2v2c.59.16,1.18.32,1.79.48,5.28,1.56,8.66,3.08,12.21,7.52.33.99.66,1.98,1,3h2c2.57,3.16,4.75,6.61,7,10q.73,1.09,1.46,2.2c4.29,6.64,6.93,13.74,9.57,21.15.63,1.72,1.29,3.42,1.99,5.11,1.45,3.78,2.27,7.67,3.19,11.6q.7,2.89,1.78,5.34c1.27,3.3,1.9,6.63,2.5,10.09.13.73.25,1.46.38,2.21,1,6.05,1.71,12.12,2.3,18.23.08.85.17,1.7.25,2.58,1.34,14.88.02,29.17-4.44,43.48.71.12,1.43.24,2.16.36,2.94.66,5.45,1.63,8.21,2.82,9.47,4.03,18.97,7.92,28.69,11.31,5.93,2.08,11.66,4.5,17.42,7.02,4.59,1.93,9.26,3.58,13.97,5.2,3.6,1.29,7.14,2.7,10.68,4.13,16.04,6.42,32.13,12.78,48.86,17.15.67.18,1.35.36,2.04.55,8.92,2.4,17.8,4.19,26.96,5.45.98.21,1.95.42,2.96.64,3.55.42,6.09-.12,9.54-1.01,12.29-3.13,23.06-3.23,34.43,3.14.68.41,1.36.81,2.07,1.23,1.03.56,2.06,1.11,3.12,1.69.62.43,1.24.87,1.88,1.31v2h2v2q.91.38,1.83.77c7.27,4.14,12.3,17.08,14.77,24.76,2.88,10.65,2.8,21.42,2.34,32.38q-.03,2.12.59,4.23c.66,2.7-.3,4.17-1.42,6.68-2.37,6.01-2.64,11.63-2.75,18q-.37,3.19-1.52,5-1.85,1.19-4.77,2.02c-3.93,1.49-5.05,3.31-7.33,6.79-1.21,1.82-2.45,3.62-3.75,5.38h-2c-.27.6-.54,1.2-.81,1.81-2.22,4.09-5.19,5.92-9.19,8.19-1.09.64-2.19,1.28-3.31,1.94-1.23.69-2.46,1.38-3.69,2.06-.63.35-1.26.71-1.91,1.07-10.35,5.53-23.25,6.96-34.65,3.92-12.92-5.28-22.79-14.76-29.44-27v-2c-.54.2-1.08.39-1.64.59-11.03,1.9-27.56-8.86-36.89-14.23-2.61-1.43-5.26-2.74-7.94-4.05-10.52-5.14-20.79-10.81-30.54-17.31v-2c-.68-.08-1.36-.17-2.06-.25-3.81-.97-6.58-2.71-9.94-4.75v-2c-.83-.08-1.65-.17-2.5-.25-4.25-.91-7.7-2.73-11.5-4.75-1.83-.92-3.66-1.84-5.5-2.75-3.52-1.76-7.04-3.52-10.55-5.31-.7-.35-1.39-.71-2.11-1.07-1.35-.69-2.71-1.38-4.06-2.07-4.5-2.27-9.04-4.1-13.78-5.8v-2q-1.08-.18-2.17-.36c-2.94-.67-5.35-1.67-8.08-2.96-.95-.44-1.91-.89-2.89-1.34-.94-.44-1.89-.89-2.86-1.34-1.68-.78-3.37-1.55-5.06-2.31-.71-.33-1.43-.65-2.16-.99q-1.77-.82-3.78-.7-1.28,1.56-2.5,3.5t-2.5,3.5h-2v2h-2c-.33,1.65-.66,3.3-1,5h-2v2h-2c-.27.64-.54,1.28-.81,1.94q-1.19,2.06-4.19,3.06c-.33.99-.66,1.98-1,3q-3.44,3-6,3-.31.84-.62,1.69c-1.89,3.19-4.49,5.02-7.38,7.31-.45.48-.91.96-1.38,1.45-2.05,1.95-4.26,3.29-6.69,4.73-.88.53-1.76,1.06-2.66,1.61q-2.28,1.21-4.28,1.21v2q-17.86,10.14-27,12v2c-.65.18-1.3.36-1.98.55q-5.57,1.59-10.84,3.95c-4.33,2.04-8.78,2.87-13.46,3.85q-2.63.37-3.73,1.65c-1.5.22-3.02.37-4.53.5-.95.08-1.9.16-2.87.25-1.02.08-2.04.17-3.1.25-1.04.09-2.08.17-3.15.26-3.12.25-6.23.5-9.35.74-.86.07-1.72.14-2.61.2q-20.71,1.58-26.39-2.2-2.04-.51-4.27-.78-1.24-.18-2.5-.36c-.86-.12-1.72-.23-2.6-.36-5.17-.71-9.81-1.39-14.62-3.5-2.36-.53-4.72-.93-7.11-1.34-4.07-.93-7.95-2.29-11.89-3.66-.79-.28-1.59-.55-2.4-.84-2.47-.86-4.94-1.73-7.41-2.6-5.63-1.98-11.26-3.93-16.94-5.75-4.01-1.32-7.64-2.92-11.36-4.89-1.94-.94-3.83-1.56-5.89-2.17-6.71-2.12-12.86-5.57-19.1-8.78-2.62-1.34-5.26-2.66-7.9-3.97-1.33-.67-2.67-1.33-4-2v-2c-2.31-.33-4.62-.66-7-1v-2q-4.95-1.48-10-3v-2c-1.65-.33-3.3-.66-5-1v-2c-.84-.09-1.68-.18-2.54-.28-3.98-.83-7.27-2.41-10.84-4.29q-.96-.49-1.94-1c-1.56-.81-3.12-1.62-4.68-2.44v-2c-.67-.09-1.34-.18-2.04-.27-3.76-.92-6.99-2.58-10.4-4.35-1.42-.72-2.83-1.44-4.25-2.16-.71-.37-1.43-.73-2.16-1.11-3.37-1.72-6.76-3.41-10.15-5.1l-6-3v-2c-2.31-.66-4.62-1.32-7-2v-2q-.99-.31-2-.62c-3.36-1.54-5.93-3.49-8.83-5.74-2.15-1.62-4.35-3.11-6.61-4.57-4.04-2.65-7.84-5.54-11.62-8.55-1.6-1.24-3.26-2.39-4.95-3.52v-2c-.56-.23-1.11-.45-1.69-.69-2.95-1.68-4.94-3.89-7.31-6.31q-1.39-1.08-2.81-2.19c-.72-.6-1.44-1.2-2.19-1.81v-2h-2c-.23-.52-.46-1.04-.7-1.57-1.63-3.48-2.96-6.09-5.74-8.8-3.61-3.7-5.4-7.97-7.56-12.63-1.85-3.79-3.66-7.49-6-11-.45-1.59-.89-3.18-1.31-4.78q-.67-2.29-1.75-4.69c-12.68-29.48-13.26-66.79-4.94-97.53.2-.73.39-1.46.59-2.22,2.62-9.67,5.72-19.04,9.59-28.28.33-.79.67-1.59,1.01-2.41,1.62-3.74,3.25-6.89,5.8-10.09.72-1.44,1.4-2.9,2.06-4.38,5.13-10.48,12.97-21.15,20.94-29.62h2v-2h2c.1-.64.21-1.28.31-1.94.23-.68.45-1.36.69-2.06.99-.33,1.98-.66,3-1,.33-.99.66-1.98,1-3q2.21-2.04,4.94-4.19,1.34-1.07,2.71-2.17,2.35-1.64,4.35-1.64v-2h2c.26-.6.51-1.2.78-1.82,3.15-5.62,10.08-8.81,15.6-11.76,2.65-1.44,5.24-2.95,7.84-4.47,4.78-2.79,9.46-5.49,14.74-7.25,2.68-.92,5.25-2.03,7.86-3.14,2.06-.86,4.12-1.71,6.19-2.56.86-.36,1.73-.73,2.62-1.11,34.4-13.64,73.97-4.53,108.38,4.11Zm-105,8v2q-1.34.16-2.7.33c-1.17.16-2.34.32-3.55.48-1.16.15-2.32.3-3.52.46-3.31.75-4.65,1.66-7.23,3.73q-2.26.7-4.69,1.25c-5.02,1.39-8.2,3.72-12.14,7.05-2.1,1.65-4.06,2.73-6.48,3.82-3.61,1.66-5.29,3.68-7.69,6.88-1.03.66-2.06,1.32-3.12,2q-3.06,1.73-3.94,4.69c-.31.76-.62,1.53-.94,2.31q-1.11.15-2.25.31c-3.99,1-5.28,3.53-7.61,6.78q-1.31,1.83-1.14,3.91c-.58.19-1.15.37-1.75.56-2.74,1.75-3.69,3.81-5.18,6.64-1.59,2.68-3.84,4.63-6.07,6.8-1.38,1.97-2.71,3.97-4,6-.68,1.01-1.36,2.02-2.06,3.06-1.72,2.61-3.36,5.24-4.94,7.94q-.96,1.58-1.94,3.18c-2.08,3.65-3.4,7.42-4.56,11.44-.21.7-.42,1.39-.63,2.11-.43,1.42-.85,2.84-1.27,4.25-.85,2.87-1.76,5.72-2.66,8.57-1.83,5.94-3.43,11.93-5,17.94-.79,2.93-1.65,5.8-2.57,8.69-6.97,23.18-3.46,50.7,2.62,73.81l1,1q.12,1.39.25,2.81c.71,5.74,3.42,10.95,5.75,16.19h2c.25.85.5,1.71.76,2.59,1.33,3.67,3.01,6.71,5.05,10.04q1,1.66,2.02,3.35c2.14,2.99,4.23,4.84,7.17,7.02q.9,1.14,1.81,2.31c2.39,2.94,4.99,5.23,7.86,7.68,2.58,2.24,5.07,4.56,7.57,6.89,8.87,8.06,18.51,14.75,28.62,21.12,2.41,1.55,4.68,3.13,6.94,4.88,3.88,2.59,7.72,3.88,12.19,5.12v2q.9.27,1.83.55c4.34,1.36,7.57,2.66,11.17,5.45,2.66,1.06,5.3,2.05,8,3,7.91,2.8,15.25,6.08,22.59,10.11q8.28,4.86,17.41,6.89v2c6.04,3.16,12.01,6.08,18.44,8.38,4.75,1.76,8.8,3.89,13.06,6.62,5.28,3.39,10.44,5.75,16.34,7.86,3.02,1.09,5.92,2.34,8.85,3.64,5.99,2.55,12.15,4.24,18.43,5.89q5.79,1.52,6.88,2.61c2.14.23,4.29.43,6.44.62,8.86.97,16.67,4.17,24.81,7.65,3.93,1.62,7.03,1.86,11.25,1.85,1.14,0,2.29,0,3.47,0q3.08,0,6.03-1.13c2,.32,4,.66,6,1,17.09.28,34.58-3.77,50-11,1.58-.61,3.16-1.22,4.75-1.81,11.66-4.67,22.4-10.35,32.25-18.19.87-.68,1.75-1.37,2.65-2.07,2.47-1.95,4.92-3.93,7.35-5.93.67-.55,1.35-1.1,2.04-1.66,3.45-2.87,6.16-5.81,8.96-9.34q1.49-1.21,3-2.44c3.07-2.62,4.99-5.08,7-8.56v-2h2q2.32-3.22,3-7c-1.67-.77-3.33-1.54-5-2.31-.93-.43-1.86-.86-2.81-1.3-2.33-1.01-4.61-1.91-7-2.76-4.61-1.7-8.82-4.02-13.12-6.38-7.03-3.79-14.1-7.12-21.54-10-3.75-1.46-7.09-3.15-10.52-5.25h-2v-2c-4.3-4.66-8.42-8.43-14.31-10.81-5.7-2.46-10.92-5.72-13.82-11.39-1.58-4.49-2.45-9.06-2.87-13.79-.06-.69-.13-1.37-.2-2.08-.46-8.7,2.99-16.29,8.36-23.03,5.18-5.31,12.21-10.76,19.86-10.97,5.97.5,11.38,1.18,16.98,3.36,3.9,1.4,7.69,1.79,11.81,1.97,7.02.6,13.42,2.89,20.06,5.06,11.11,3.57,22.46,6.3,33.82,8.94,1.11.26,2.22.52,3.37.78,5.3,1.21,10.54,2.32,15.95,2.97,4.31-8.29,4.6-15.99,4.44-25.19,0-.7-.01-1.4-.02-2.13-.2-19.3-2.54-37.23-8.7-55.55-.64-1.92-1.25-3.86-1.85-5.79-1.76-5.61-3.82-10.32-6.86-15.34q-.74-1.79-1.5-3.62c-1.48-3.33-3.01-5.73-5.5-8.38h-2c-.25-.78-.49-1.57-.75-2.38-1.4-2.95-2.26-3.53-5.25-4.62v-2q-2.21-1.65-5-3.31c-1-.62-2-1.23-3.03-1.87-.98-.6-1.96-1.2-2.97-1.82q-4.37-2.85-6.34-4.15-1.79-1.08-4.66-.85v-2q-1.96-1.42-4.62-2.88-1.63-.92-3.29-1.86c-6.85-3.8-13.74-7.56-20.62-11.3-.89-.48-1.79-.97-2.7-1.47-1.91-1.04-3.83-2.07-5.74-3.11q-1.45-.79-2.93-1.59c-.87-.47-1.74-.94-2.64-1.43-2.92-1.64-5.72-3.42-8.49-5.29-4.59-2.54-9.43-3.42-14.57-4.14-3.52-.5-6.95-.99-10.38-1.94v-2q-1.61-.58-3.25-1.17c-1.44-.53-2.87-1.05-4.31-1.58-.7-.25-1.41-.51-2.13-.77-4.76-1.75-8.93-3.91-13.3-6.48-1.38-.63-2.77-1.22-4.19-1.75-.63-.24-1.27-.48-1.92-.73q-2.21-.69-5.89-.52v-2c-1.09-.35-2.18-.7-3.3-1.07-8.83-2.88-17.52-5.97-26.15-9.4-5.83-2.3-11.72-4.29-17.68-6.21-4.45-1.48-8.77-3.26-13.11-5.01-5.66-2.27-11-4.12-17.1-4.83-2.41-.44-4.46-1.09-6.76-1.91-5.29-1.82-10.63-2.71-16.14-3.58-6.05-.97-11.96-2.04-17.89-3.6-8.11-1.91-16.08-1.9-24.36-1.84-.79,0-1.57,0-2.38,0-12.72.03-24.77,1.19-37.12,4.43Z"/>
  <path class="cls-56" d="m660.22,310.04c9.91-.39,20.6,1.57,28.33,8.2v2c.6.25,1.2.5,1.81.75,6.14,3.5,9.23,11.76,11.38,18.18,3.4,12.82,4.4,28.01,1.81,41.07q-.99.5-2,1c-.63,2.16-1.15,4.36-1.62,6.56-.26,1.2-.52,2.4-.79,3.63-.19.93-.39,1.85-.59,2.81q5.02-.33,9-3c.57-1.92,1.06-3.86,1.5-5.81.89-3.9,1.92-7.51,3.5-11.19.66.66,1.32,1.32,2,2-.21,2.73-.55,5.3-1,8-.36,2.23-.71,4.46-1.06,6.69-.18,1.08-.35,2.15-.54,3.26q-.47,3-.39,5.83-.02,2.22-1.2,4.03c-2.52,1.65-3.84,1.68-6.81,1.19-1.68-1.31-3.35-2.65-5-4h-4q-.4.85-.81,1.72c-3.04,6-6.6,10.44-12.19,14.28h-2q-.5,1.49-1,3c-7,6.79-14.34,7.37-23.62,7.29-5.61-.14-10.96-.8-16.38-2.29v-2c-.97-.27-1.94-.54-2.94-.81-1.01-.39-2.02-.78-3.06-1.19-.33-.99-.66-1.98-1-3q-1.49-.5-3-1v-2c-.61-.08-1.22-.15-1.85-.23q-2.15-.77-3.46-2.63c-.37-.81-.75-1.62-1.13-2.45-.42-.9-.83-1.79-1.26-2.72-.43-.98-.86-1.96-1.3-2.97-.46-1.04-.92-2.08-1.39-3.16-3.71-8.65-4.79-15.49-4.79-24.84-.01-.98-.02-1.97-.04-2.98,0-.95,0-1.91,0-2.89,0-.86,0-1.73-.01-2.62.27-2.82,1.13-4.92,2.24-7.51.25-1.15.49-2.31.75-3.5,1.48-6.19,4.5-11.79,7.25-17.5q.48-1.1.96-2.23c4.14-9.28,10.51-17.06,20.04-20.77,3.24-1.39,3.94-1.92,6-5,3.25-.78,6.34-.95,9.67-1.2Z"/>
  <path class="cls-37" d="m168.73,11.99c.69,0,1.37,0,2.08,0,10.31,0,19.68.86,29.73,3.25,3.03.57,6.08,1.07,9.12,1.56.77.13,1.53.26,2.32.39,4.41.73,8.8,1.3,13.24,1.8,11.17,1.52,22.53,5.13,32.98,9.32,2.34.94,4.56,1.5,7.02,2,2.34.48,4.18.87,6.31,1.94v2c1.3.08,2.6.17,3.94.25,4.42.48,7.79,1.79,11.75,3.72,2.37,1.06,4.67,1.74,7.18,2.41,3.92,1.1,7.16,2.65,10.69,4.69,4.18,2.4,7.77,3.67,12.49,4.51,2.72.6,4.73,1.77,6.95,3.43.33.66.66,1.32,1,2,2.03,1.07,4.1,2.06,6.19,3l3.42,1.56q3.32,1.47,6.57,2.44,2.82,1,4.77,2.5c3.7,2.69,8.27,3.25,12.65,4.34,3.54,1.2,5.67,2.67,8.41,5.16-2.52-.26-5.04-.53-7.56-.81-.7-.07-1.41-.14-2.13-.21-4.93-.57-8.82-1.83-13.3-3.97v-2c-1.13-.25-2.27-.49-3.44-.75-4.8-1.2-9.1-3.15-13.56-5.25-5.9-2.73-11.79-5.06-18-7v-2c-.58-.09-1.17-.19-1.77-.28-7.08-1.26-13.54-3.49-20.23-6.09-1.02-.39-2.03-.77-3.08-1.17-5.61-2.14-11.19-4.35-16.75-6.61-2.8-1.09-5.64-2.01-8.5-2.93-2.16-.74-4.28-1.53-6.41-2.37-6.8-2.66-13.24-5.12-20.54-6.03-2.43-.46-4.51-1.12-6.84-1.95-5.29-1.82-10.62-2.7-16.14-3.57-6.04-.97-11.94-2.04-17.86-3.6-7.5-1.77-14.81-1.85-22.48-1.79-2.34.02-4.68,0-7.01-.02-8.45-.01-16.07.63-24.28,2.77-3.44.71-6.61.75-10.11.64v2c-.89.18-1.78.36-2.7.55-1.17.25-2.34.5-3.55.76q-1.74.37-3.52.74c-3.16.93-4.7,1.96-7.23,3.95q-2.26.7-4.69,1.25c-5.02,1.39-8.2,3.72-12.14,7.05-2.1,1.65-4.06,2.73-6.48,3.82-3.6,1.66-5.31,3.68-7.69,6.88-.85.49-1.69.99-2.56,1.5q-2.63,1.36-4,4.12c-.47.78-.95,1.57-1.44,2.38-.62.11-1.23.22-1.87.34-3.13.97-3.95,2.88-5.7,5.6-2.07,3.2-3.23,4.92-6.44,7.06q-1.1,1.69-2,3.56-2,3.44-5,4.44-1.01,1.77-2,4c-1.31,2.01-2.65,4.01-4,6-2.44,3.62-4.8,7.24-7,11q-.96,1.58-1.94,3.18c-2.08,3.65-3.4,7.42-4.56,11.44-.21.7-.42,1.39-.63,2.11-.43,1.42-.85,2.84-1.27,4.25-.85,2.87-1.76,5.72-2.66,8.57-1.83,5.94-3.43,11.93-5,17.94-.79,2.93-1.65,5.8-2.57,8.69-6.97,23.18-3.46,50.7,2.62,73.81l1,1c.1.99.21,1.98.31,3,.5,4.05,2.06,7.35,3.85,10.98q.84,2.02.84,5.02h2c1.3,2.23,2.59,4.46,3.88,6.69.36.63.73,1.25,1.11,1.9,1.58,2.75,3,5.36,4.16,8.31,1.12,2.75,2.24,2.83,4.86,4.1,1.19,1.43,2.38,2.85,3.54,4.31,2.17,2.51,4.65,4.57,7.17,6.71,2.57,2.22,5.05,4.53,7.54,6.85,4.9,4.49,10.03,8.44,15.41,12.31q2.34,1.81,3.34,3.81-2.94-.81-6-2-.5-1.48-1-3-1.86-.59-4-1c-5.08-2.63-9.06-5.86-13-10-2.06-1.84-4.14-3.65-6.23-5.45-1.3-1.14-2.55-2.33-3.77-3.55v-3c-.76-.27-1.53-.54-2.31-.81-4.68-2.07-6.21-4.93-8.66-9.38-.89-1.57-1.89-3.07-2.9-4.56-10.38-15.88-14.73-32.49-17.04-51.13-.11-.88-.23-1.75-.34-2.66-.1-.79-.19-1.58-.29-2.39q-.39-2.37-2.45-5.08-.24-3.02-.23-6.68c0-.65,0-1.3,0-1.97,0-1.37.01-2.75.02-4.12.02-2.09.02-4.18.02-6.27q.04-10.79,1.19-15.96c-.03-1.42-.09-2.84-.19-4.25-.09-7.14,1.92-13.84,3.68-20.71.7-2.81,1.28-5.65,1.88-8.48,2.17-9.48,4.88-20,9.62-28.56h2c.33-1.65.66-3.3,1-5h2c.27-.87.54-1.73.81-2.62,1.98-5.62,4.33-9.86,8.44-14.19,3.73-4.01,7.1-8.15,10.34-12.57.47-.53.93-1.07,1.41-1.62h2c.27-.56.54-1.11.81-1.69.39-.76.78-1.53,1.19-2.31.37-.76.74-1.53,1.12-2.31,4.1-5.88,9.98-9.76,15.88-13.69l2.44-2.44c5.01-5.01,10.54-8.19,16.81-11.38.61-.31,1.23-.63,1.86-.95,2.83-1.4,4.68-2.23,7.89-2.23v-3l10-2v-2q1.05-.04,2.12-.08c5.76-.34,9.91-1.13,14.93-3.94,10.75-5.43,25.49-4.22,37.14-4.23Z"/>
  <path class="cls-7" d="m662.26,358.82c5.11.93,8.26,2.94,11.28,7.29,1.99,5.81,1.36,12.25,0,18.12-1.8,3.14-3.64,4.67-7,6-5.03.98-8.75.6-13.38-1.62-3.9-3.53-6.43-5.98-6.87-11.43,0-2.99.07-5.96.24-8.95h2q.34-.84.69-1.69c3.32-5.85,6.36-8.15,13.03-7.73Z"/>
  <path class="cls-5" d="m407.54,310.24c4.1,1.09,7.87,2.33,11.76,4.07,5.32,2.21,10.81,4.02,16.24,5.93-.44,5.05-1.19,7.96-4.5,11.81-.72.85-1.44,1.69-2.19,2.57q-1.14,1.3-2.31,2.62c-.74.88-1.49,1.75-2.25,2.65-3.97,4.58-7.88,8.38-12.85,11.85-2.12,1.67-3.73,3.49-5.46,5.56-3.16,3.76-6.22,6.39-10.44,8.94h-4c-.33.99-.66,1.98-1,3-9.01,7.1-26.49,16-38,16v2c-12.78,4.79-26.02,6.3-39.55,7.27-4.57.35-8.22.84-12.45,2.73-10.41-.35-19.72-5.69-29-10,2.79-1.12,3.9-1.04,6.78,0q1.56.71,3.16,1.44c7.48,3.05,15.27,4.16,23.06,1.56,2,.32,4,.66,6,1,17.09.28,34.58-3.77,50-11,1.58-.61,3.16-1.22,4.75-1.81,11.65-4.67,22.4-10.35,32.25-18.19.89-.69,1.77-1.39,2.68-2.11,2.46-1.94,4.89-3.92,7.32-5.89.59-.46,1.18-.93,1.78-1.4,2.64-2.11,4.86-4.29,6.97-6.91q1.11-1.33,2.25-2.69h2l1-3,3-3c.68-1.05,1.36-2.1,2.06-3.19q.96-1.39,1.94-2.81h2c.31-.78.62-1.57.94-2.38q1.06-2.62,2.06-4.62c-.68-.11-1.37-.21-2.07-.32-8.33-1.92-16.68-6.19-23.93-10.68v-1Z"/>
  <path class="cls-16" d="m111.54,319.24c4.43,1.11,7.4,2.27,11,5,2.66,1.06,5.3,2.05,8,3,7.86,2.78,15.16,6.02,22.45,10.04,5.67,3.1,11.52,5.62,17.55,7.96v2c.55.17,1.09.34,1.65.52,8.54,2.75,16.45,6.5,24.47,10.48.67.33,1.34.66,2.03,1.01,3.23,1.62,6.4,3.29,9.52,5.11,2.78,1.57,5.41,2.82,8.39,3.94,3.78,1.46,7.36,3.05,10.94,4.94v1c-3.75.21-5.71-.31-9-2q-1.86-.43-3.75-.88c-4.39-1.04-8.44-2.69-12.25-5.12-.33-.66-.66-1.32-1-2-1.87-.88-3.77-1.68-5.69-2.44-3.28-1.32-6.42-2.62-9.56-4.25-2.92-1.39-5.65-2.06-8.78-2.77-2.87-.78-5.38-2.11-7.97-3.54v-2c-.7-.1-1.41-.2-2.13-.3-3.32-.8-5.78-2.14-8.74-3.82-4.75-2.62-9.51-5.06-14.44-7.31-7.99-3.67-15.84-7.6-23.69-11.56-2-1-4-2-6-3v-2c-.99-.33-1.98-.66-3-1v-1Z"/>
  <path class="cls-26" d="m168.73,11.99c.68,0,1.37,0,2.07,0,10.28,0,19.77.71,29.74,3.26,2,.41,4,.8,6,1.19,1.33.27,2.67.54,4,.81v2q1.67.16,3.37.33c8.17.85,15.86,1.87,23.63,4.67,1.2.39,2.39.78,3.62,1.19q1.18.4,2.38.81v2c.66.33,1.32.66,2,1-6.33-.78-12.38-1.63-18.38-3.88-6.81-2.44-13.79-3.51-20.91-4.64-5.03-.81-9.89-1.78-14.81-3.08-7.51-1.77-14.82-1.86-22.49-1.79-2.34.02-4.68,0-7.01-.02-8.45-.01-16.07.63-24.28,2.77-3.44.71-6.61.75-10.11.64v2c-2.31.33-4.62.66-7,1,14.96-9.97,30.68-10.23,48.19-10.25Z"/>
  <path class="cls-50" d="m459.54,142.24c12.72,10.9,15.86,41.73,17.55,57.42.27,3.86.4,7.71.45,11.58.02.89.05,1.78.07,2.69.08,2.96.13,5.91.18,8.87.02.93.04,1.86.07,2.82.03,5.63-.49,9.7-3.32,14.62q-1.48.5-3,1c.52-2.76,1.11-5.33,2-8,1.43-25.8-.69-50.46-9-75-.41-1.24-.82-2.49-1.24-3.77-.65-1.98-1.32-3.95-2-5.92-.69-2.09-1.26-4.17-1.76-6.31Z"/>
  <path class="cls-59" d="m407.54,310.24c4.1,1.09,7.87,2.33,11.76,4.07,5.32,2.21,10.81,4.02,16.24,5.93-.44,5.05-1.19,7.96-4.5,11.81-.72.85-1.44,1.69-2.19,2.57-.76.86-1.53,1.73-2.31,2.62-.74.88-1.49,1.75-2.25,2.65-3.97,4.58-7.88,8.38-12.85,11.85-2.12,1.67-3.73,3.49-5.46,5.56-3.16,3.76-6.22,6.39-10.44,8.94h-4c-.33.99-.66,1.98-1,3-2.18,1.35-4.29,2.54-6.56,3.69-.62.32-1.23.64-1.87.97-1.52.79-3.05,1.57-4.57,2.34v-3q2.31-1.58,5.44-3.25c5.65-3.15,10.56-6.67,15.56-10.75,1.56-1.21,3.12-2.42,4.69-3.62,1.44-1.12,2.88-2.25,4.31-3.38.57-.44,1.14-.88,1.72-1.34,2.66-2.13,4.9-4.33,7.03-6.97.74-.89,1.48-1.77,2.25-2.69h2q.49-1.49,1-3l3-3c.68-1.05,1.36-2.1,2.06-3.19q.96-1.39,1.94-2.81h2c.31-.78.62-1.57.94-2.38q1.06-2.62,2.06-4.62c-.68-.11-1.37-.21-2.07-.32-8.33-1.92-16.68-6.19-23.93-10.68v-1Z"/>
  <path class="cls-24" d="m20.54,231.24c3.89,3.24,4.87,6.12,6,11q.31,1.21.62,2.44c.12.52.25,1.03.38,1.56h2c1.3,2.23,2.59,4.46,3.88,6.69.36.63.73,1.25,1.11,1.9,1.58,2.75,3,5.36,4.16,8.31,1.12,2.75,2.24,2.83,4.86,4.1,1.19,1.43,2.38,2.85,3.54,4.31,2.17,2.51,4.65,4.57,7.17,6.71,2.57,2.22,5.05,4.53,7.54,6.85,4.9,4.49,10.03,8.44,15.41,12.31q2.34,1.81,3.34,3.81-2.94-.81-6-2c-.33-.99-.66-1.98-1-3q-1.86-.59-4-1c-5.08-2.63-9.06-5.86-13-10-2.06-1.84-4.14-3.65-6.23-5.45-1.3-1.14-2.55-2.33-3.77-3.55v-3c-.76-.27-1.53-.54-2.31-.81-4.68-2.07-6.21-4.93-8.66-9.38-.89-1.57-1.89-3.07-2.9-4.56q-12.12-18.54-12.12-27.25Z"/>
  <path class="cls-59" d="m18.54,128.24c1.29,4.2.34,7.33-.88,11.44-1.76,6.16-3.27,11.69-3.12,18.12q.11,5.04-.49,7.17c-1.11,4.94-.69,10.17-.69,15.22,0,2.1-.02,4.21-.04,6.31,0,1.34,0,2.68,0,4.02,0,1.22,0,2.43-.01,3.68q0,3.21,2.24,6.03.47,2.17.78,4.68c.12.91.24,1.82.36,2.76.12.95.23,1.9.36,2.88q.85,7.16,2.66,14.11c.89,2.74.86,3.94-.16,6.58-3.16-8.61-5.56-16.7-6.54-25.88q-.34-3.1-1.46-5.79c-1.18-3.96-1.32-7.66-1.33-11.74,0-.8-.02-1.61-.03-2.44-.02-2.59-.02-5.18-.01-7.78q0-1.32,0-2.66c.03-16.63,1.19-31.52,8.38-46.71Z"/>
  <path class="cls-2" d="m625.54,332.24q.75,1.56,1,4c-.88,1.65-1.77,3.29-2.75,4.88-3.93,6.66-6.63,13.58-8.25,21.12l-1,3c-.26,3.54-.23,7.08-.25,10.62-.02.96-.04,1.92-.06,2.91-.03,6.41.89,11.54,3.31,17.46.42,1.09.85,2.17,1.28,3.29,1.22,2.91,2.46,5.81,3.72,8.71.29.68.58,1.36.88,2.06q.78,1.78,2.12,3.94c.99.33,1.98.66,3,1,.6.78,1.2,1.57,1.81,2.38,2.46,2.95,4.69,4.11,8.19,5.62v2c7.33.76,14.66,1.41,22,2v1q-19.63.96-28-5c-1.03-.72-2.06-1.44-3.12-2.19-.62-.6-1.24-1.2-1.88-1.81v-2c-.6-.24-1.2-.49-1.82-.74-6.69-3.87-10.03-14.44-12.28-21.42-2.39-10.39-1.74-22.27-.91-32.84l1-1c.3-1.49.56-3,.81-4.5,1.54-7.94,5.34-18.66,11.19-24.5Z"/>
  <path class="cls-61" d="m311.54,50.24c8.56,2.29,16.01,5.28,23.81,9.41q3.12,1.65,6.35,2.61,2.84.98,4.78,2.48c3.7,2.69,8.27,3.25,12.65,4.34,3.54,1.2,5.67,2.67,8.41,5.16-2.52-.26-5.04-.53-7.56-.81-.7-.07-1.41-.14-2.13-.21-4.93-.57-8.82-1.83-13.3-3.97v-2c-1.13-.25-2.27-.5-3.44-.75-4.8-1.2-9.1-3.15-13.56-5.25-5.9-2.73-11.79-5.06-18-7v-2h2v-2Z"/>
  <path class="cls-21" d="m605.54,305.24c5.85.51,11.33,1.45,17,3-.33,1.32-.66,2.64-1,4q-.93.12-1.88.25c-.7.25-1.4.49-2.12.75-.24.55-.48,1.1-.73,1.66-1.89,3.49-4.76,5.83-7.64,8.53-5.08,4.89-8.42,8.98-10.62,15.81h-2c-.12.64-.24,1.28-.37,1.94-.77,3.97-1.57,7.86-2.7,11.75-1.72,6.07-2.1,12.03-2.06,18.31,0,.67,0,1.35-.01,2.04,0,4.43.42,8.6,1.14,12.96-.33-.66-.66-1.32-1-2h-2c-3.04-15.27-1.64-31.01,5.82-44.75,1.24-2.37,2.19-4.77,3.18-7.25,2.62-5.19,5.33-8.58,10.23-11.7,2.64-1.93,4.51-4.37,6.51-6.94q.62-.67,1.26-1.36h2v-3c-.69-.12-1.37-.24-2.08-.37-.9-.17-1.8-.34-2.73-.51-.89-.16-1.79-.32-2.71-.49q-2.48-.63-5.48-2.63Z"/>
  <path class="cls-25" d="m324.54,54.24l6,1v2c.95.06,1.9.12,2.88.19,5.2.7,9.58,3.33,14.12,5.81v2c1.02.11,2.05.22,3.11.33,1.36.16,2.72.32,4.08.48.67.07,1.35.14,2.04.21,5.76.7,9.08,2.21,13.08,6.39,3.29,3.16,6.7,4.94,10.75,6.96,1.52.78,3.03,1.56,4.54,2.34.74.38,1.49.77,2.25,1.16,4.03,2.12,7.92,4.47,11.82,6.82q2.36,1.43,5.32,2.31v2h3v2c-3.75-.58-6.49-1.63-9.77-3.55-.89-.52-1.78-1.03-2.7-1.56-.92-.54-1.84-1.08-2.79-1.64-1.82-1.06-3.64-2.12-5.45-3.17-.88-.52-1.77-1.03-2.68-1.56-3.84-2.22-7.73-4.38-11.62-6.51q-3.06-1.69-5-3v-2c-2.92-1.24-5.84-2.28-8.88-3.18-.69-.21-1.38-.41-2.1-.62-1.44-.42-2.87-.84-4.31-1.25-3.73-1.12-6.1-2.08-8.71-4.94q-2.19-.82-4.62-1.38c-5.29-1.46-9.71-3.77-14.38-6.62v-1Z"/>
  <path class="cls-40" d="m114.54,20.24h9c-3.14,2.66-6.1,3.76-10,5-.99.66-1.98,1.32-3,2-1.53.43-3.08.82-4.62,1.19-5.03,1.43-8.14,3.79-12.09,7.12-2.39,1.77-4.48,2.66-7.28,3.62-5.84,2.1-9.58,5.83-14,10.06-1.05.84-2.12,1.68-3.19,2.5-3.98,3.54-7.42,7.72-9.81,12.5h-3c.65-1.34,1.32-2.67,2-4,.37-.76.74-1.53,1.12-2.31,4.1-5.88,9.98-9.76,15.88-13.69l2.44-2.44c5.01-5.01,10.54-8.19,16.81-11.38.61-.31,1.23-.63,1.86-.95,2.83-1.4,4.68-2.23,7.89-2.23v-3c3.3-.66,6.6-1.32,10-2v-2Z"/>
  <path class="cls-34" d="m15.54,157.24h1q.13,7.52-.49,9.85c-4.22,17.7.93,41.83,5.49,59.15.33.33.66.66,1,1,.04,1.67.04,3.33,0,5q-2-1-2.8-2.9c-1.86-6.31-2.98-12.51-3.77-19.04-.22-1.84-.45-3.69-.69-5.53-.1-.8-.19-1.6-.29-2.43q-.38-2.4-2.45-5.11-.24-2.98-.23-6.61c0-1.31,0-2.62,0-3.98,0-.68.01-1.37.02-2.07.02-2.07.02-4.14.02-6.21q.07-16.46,3.19-21.13Z"/>
  <path class="cls-59" d="m341.54,241.24h1q-.03,1.49-.07,3.01c-.15,9.22.48,17.88,2.07,26.99h2c.64.91,1.28,1.82,1.94,2.75,3.07,3.9,6.81,4.76,11.4,6.25,3.76,1.41,5.87,3.13,8.66,6q.46,1.02.94,2.06c1.77,3.22,4.85,4.27,8.06,5.94v2c.76.1,1.53.21,2.31.31,2.91.75,3.72,1.53,5.69,3.69q-10.09-3.1-14-6v-2q-1.49-.49-3-1c-.58-.78-1.16-1.55-1.76-2.35-2.72-3.22-5.22-4.32-9.05-6.02-7.54-3.56-13.15-7.05-16.06-15.12-2.41-8.75-3.64-17.93-.12-26.5Z"/>
  <path class="cls-46" d="m208.54,16.24c-5.21.14-9.48-.23-14.56-1.5-8.27-1.78-16.58-1.81-25-1.81-1.29,0-2.58-.01-3.91-.02-12.4.09-24.42,1.65-36.53,4.33,3.16-4.75,7.98-5.12,13.33-6.2,17.14-2.8,51.76-4.74,66.67,5.2Z"/>
  <path class="cls-38" d="m184.54,15.24c8.44.34,16.2,1.08,24.4,3.18,5.25,1.2,10.56,1.93,15.89,2.64,5.05.73,9.09,2.03,13.71,4.18q2.78.69,5,1v2l2,1c-6.33-.78-12.38-1.63-18.38-3.88-6.87-2.46-13.92-3.5-21.09-4.69-7.26-1.2-14.39-2.63-21.53-4.44v-1Z"/>
  <path class="cls-51" d="m410.54,236.24q5.52-.38,7.85,1.44c2.63,1.91,4.6,2.24,7.79,2.73,1.07.17,2.14.34,3.24.52,1.11.17,2.22.33,3.37.5,1.13.18,2.25.35,3.41.54,2.78.44,5.56.86,8.34,1.28v2q1.58-.12,3.19-.25c7.87-.03,15.62,3.29,22.81,6.25v2q1.7.43,3.44.88t3.56,1.12q.5.99,1,2c-1.63-.48-3.25-.96-4.88-1.44-.9-.27-1.81-.53-2.74-.81q-2.38-.75-4.38-1.75v-2c-10.39-3.43-21.2-4.6-32-6v-2c-.73-.01-1.45-.03-2.2-.04-8.13-.39-14.49-2.44-21.8-5.96v-1Z"/>
  <path class="cls-2" d="m696.54,327.24c5.72,4.49,7.82,12.06,9,19,1.05,16.49.92,32.41-5,48h-2c.41-4.97.8-9.45,3-14h2q.64-23.82-5.1-46.73c-.83-2.08-1.42-4.09-1.9-6.27Z"/>
  <path class="cls-18" d="m574.54,384.24c2.73.61,5.14,1.43,7.67,2.63.66.31,1.33.63,2.01.95.68.33,1.36.65,2.07.99.7.33,1.39.66,2.11,1,1.71.81,3.43,1.62,5.14,2.44-.33-1.98-.66-3.96-1-6q2,1.38,4,3v2q1.05.26,2.12.52c.91.24,1.82.48,2.76.73q1.36.35,2.74.7,2.38,1.05,3.7,3.16c.22.62.45,1.25.68,1.89-1.77-.14-3.54-.29-5.31-.44-.99-.08-1.97-.16-2.99-.25q-2.7-.32-5.7-1.32v-2c-1.26-.21-2.52-.41-3.81-.62-5.99-1.3-10.96-4.27-16.19-7.38v-2Z"/>
  <path class="cls-5" d="m421.54,232.24c7.09.67,13.9,2.26,20.82,3.9,1.98.47,3.96.93,5.94,1.4,7.46,1.75,14.87,3.62,22.24,5.7.33-.66.66-1.32,1-2v5c-1.5-.26-3-.53-4.5-.81-.84-.15-1.67-.3-2.53-.46-2.41-.59-4.49-1.3-6.79-2.21-4.15-1.61-8.23-2.36-12.62-3.02-5.45-.88-10.56-1.94-15.76-3.87-2.55-.89-5.13-1.29-7.8-1.63v-2Z"/>
  <path class="cls-4" d="m385.54,222.24c-3.39,1.13-4.59.75-8,0-7.37-.81-12.75-.57-18.76,4-3.56,3.18-6.9,6.55-10.17,10.02q-2.07,1.98-4.07,1.98v3h-2c2.17-8.9,8.28-13.51,15.54-18.52,8.61-5.17,18.24-3.7,27.46-.48Z"/>
  <path class="cls-25" d="m540.54,281.24c6.44,1.42,12.27,2.91,18.06,6.09,2.87,1.34,5.82,1.81,8.92,2.41,2.69.66,4.68,2.03,7.02,3.49,2.09.78,4.21,1.44,6.34,2.11,3.12,1.04,6.16,2.24,9.22,3.45,3.71,1.45,7.3,2.75,11.19,3.62,1.07.27,2.15.54,3.25.81q.5.99,1,2c-5.18-.6-9.83-1.75-14.75-3.44-.66-.22-1.32-.43-2-.66-3.08-1.04-5.53-2.09-8.25-3.9-2.32-.7-4.66-1.36-7-2-2-.66-4-1.32-6-2v-2c-.76-.13-1.52-.27-2.3-.4-.99-.18-1.99-.35-3.01-.54-.99-.17-1.97-.35-2.99-.53q-2.7-.54-5.7-1.54v-2c-1.03-.1-2.06-.21-3.12-.31-3.83-.68-6.51-1.8-9.88-3.69v-1Z"/>
  <path class="cls-20" d="m271.54,386.24c4.03.44,7.35,1.53,11.06,3.06,6.96,2.63,14.81,3.31,21.94.94q2.69.44,5,1c-4.23,2.82-7.92,5.14-13,6-4.97-1-9.39-2.91-14-5-1.1-.48-2.2-.96-3.34-1.46-2.57-1.15-5.12-2.32-7.66-3.54v-1Z"/>
  <path class="cls-3" d="m413.54,87.24c6.6,3.11,13.33,6.33,19,11v2c-1.98.33-3.96.66-6,1v-2h-3v-2c-.72-.08-1.44-.16-2.19-.25-3.48-.93-5.31-2.17-7.81-4.75q-.14-2.64,0-5Z"/>
  <path class="cls-18" d="m210.54,18.24c17.23-.15,34.33,3.77,50,11v1q-5.75.12-8-1v-2c-1.08-.11-2.17-.23-3.29-.34-6.47-.81-12.79-2.39-19.14-3.84-4.56-1.02-9.01-1.92-13.67-2.35q-3.9-.47-5.9-2.47Z"/>
  <path class="cls-27" d="m646.54,368.24h2c.04.81.07,1.62.11,2.45.07,1.07.13,2.14.2,3.24.06,1.06.12,2.11.18,3.2.56,3.38,1.5,5.36,3.51,8.11,3.93,2.29,7.52,2.47,12,2q4.71-2.45,7-7h2q0,4-1.18,5.7c-3.5,3.2-6.07,4.73-10.88,4.92-6.04-.4-9.2-2.8-13.31-7.12-2.38-5.12-1.95-9.94-1.62-15.5Z"/>
  <path class="cls-2" d="m657.54,308.24q3.23-.36,7.19-.31,1.94,0,3.92.01c9.3.72,16.24,4.71,22.96,10.99q1.94,2.31,1.94,5.31-4.73-3.68-6.69-6c-6.8-5.88-15.95-7.14-24.62-7.06-1.25,0-2.51.02-3.8.03-.95.01-1.91.02-2.89.04.66-.99,1.32-1.98,2-3Z"/>
  <path class="cls-62" d="m82.54,39.24l2,1q-4.38,5.63-7.62,7.56-2.57,1.3-3.94,4.06c-.47.78-.95,1.57-1.44,2.38-.62.11-1.23.22-1.87.34-3.13.97-3.95,2.88-5.7,5.6-2.07,3.2-3.23,4.92-6.44,7.06q-1.13,1.69-2.06,3.56-1.94,3.44-3.94,4.44v-4l2-1c1.05-1.98,2.05-3.97,3-6h3c.23-.7.45-1.4.69-2.12,3.09-6.77,8.75-11.16,14.31-15.88,1.5-1.31,3-2.62,4.5-3.94,1.17-1.02,2.33-2.04,3.5-3.06Z"/>
  <path class="cls-5" d="m693.54,399.24q5.75-.12,8,1v2c-2.31-.33-4.62-.66-7-1-.27.57-.54,1.14-.81,1.72-3.04,6-6.6,10.44-12.19,14.28h-2l-1,3c-3.51,3.41-6.15,4.55-11,5v-2q6.75-4,9-4v-2c1.44-.94,2.88-1.87,4.34-2.79,2.72-1.99,4.56-4.59,6.66-7.21.66-.33,1.32-.66,2-1q1.12-1.65,2.12-3.56c.62-1.13,1.24-2.27,1.88-3.44Z"/>
  <path class="cls-45" d="m135.54,330.24c5.51.52,9.4,2.59,14.12,5.25,6.82,3.73,13.61,6.97,20.88,9.75v2c-4.7.46-7.45-1.03-11.5-3.31q-1.66-.92-3.34-1.86c-1.96-1.13-3.91-2.28-5.84-3.46-4.5-2.66-9.45-4.45-14.31-6.37v-2Z"/>
  <path class="cls-48" d="m658.54,368.24q4.56.56,6,2,.19,3.44,0,7c-.66.66-1.32,1.32-2,2q-2.56-.25-5-1c-1.38-2.76-1.19-4.95-1-8l2-2Z"/>
  <path class="cls-2" d="m449.54,321.24c4.46.65,8.72,1.57,13,3,.33.66.66,1.32,1,2,2.03.65,4.07,1.31,6.11,1.95,3.59,1.31,6.97,2.92,10.39,4.62.62.31,1.25.61,1.89.92q4.49,2.26,5.61,4.51c-13.14-3.99-25.58-10.19-38-16v-1Z"/>
  <path class="cls-60" d="m83.54,37.24l2,1c-1.05.72-2.1,1.44-3.19,2.19-3.28,2.34-6,4.93-8.81,7.81-1.14.94-2.29,1.88-3.44,2.81-4.33,3.65-8.02,8.1-10.56,13.19h-3c.65-1.34,1.32-2.67,2-4q.56-1.14,1.12-2.31c4.1-5.88,9.98-9.76,15.88-13.69,1.69-1.65,3.36-3.31,5-5,.99-.66,1.98-1.32,3-2Z"/>
  <path class="cls-43" d="m244.54,379.24q6.88.88,8,2c3.12.41,6.23.77,9.37,1.07,4.04.47,6.64,1.11,9.63,3.93-2.83-.09-5.67-.19-8.5-.31-.79-.02-1.58-.05-2.4-.07-5.59-.25-10.02-1.21-15.1-3.62-.33-.99-.66-1.98-1-3Z"/>
  <path class="cls-15" d="m385.54,223.24c.93.14,1.86.29,2.81.44,2.19.33,4.33.57,6.54.68,6.04.32,11.46,1.53,17.21,3.32.7.22,1.41.44,2.13.66,3,.97,5.05,1.65,7.31,3.9-5.38.58-9.5-1.11-14.41-3.03-4.66-1.75-8.86-2.21-13.84-2.54-1.26-.08-2.53-.17-3.83-.25-.96-.06-1.93-.12-2.92-.18-.33-.99-.66-1.98-1-3Z"/>
  <path class="cls-5" d="m177.54,11.24v1c-.65.02-1.3.04-1.97.06-15.95.51-31.41,1.48-47.03,4.94,2.14-3.21,3.06-3.72,6.68-4.59,13.85-2.43,28.32-1.51,42.32-1.41Z"/>
  <path class="cls-6" d="m612.54,296.24q2.02.17,4.38.75,1.16.27,2.34.55c2.26.69,4.22,1.59,6.29,2.7q-.99,1.49-2,3c-1.79-.06-3.58-.15-5.38-.25-1-.05-2-.09-3.02-.14q-2.6-.61-3.95-2.66c-.21-.64-.43-1.29-.65-1.95l2-2Z"/>
  <path class="cls-2" d="m439.54,116.24q2.38.25,5,1,1.31,2.06,2,4h2c.27.8.54,1.61.81,2.44.39.85.78,1.69,1.19,2.56l3,1c1.45,2.32,2.74,4.58,4,7q.65,1.08,1.31,2.19c.87,2.3.36,3.49-.31,5.81-.38-.81-.75-1.62-1.14-2.45q-3.85-8.05-9.86-14.55c-1.7-1.63-3.38-3.29-5-5v-2c-.99-.33-1.98-.66-3-1v-1Z"/>
  <path class="cls-44" d="m202.54,365.24c9.27.6,16.84,3.71,25,8v1c-3.75.21-5.71-.31-9-2-1.94-.45-3.89-.91-5.83-1.36-3.64-1.08-6.83-2.85-10.17-4.64v-1Z"/>
  <path class="cls-15" d="m46.54,74.24q0,3-1.75,5.12c-2.45,3.13-3.76,6.12-5.22,9.79-1.08,2.19-2.29,3.41-4.03,5.09-.33.87-.66,1.73-1,2.62-.33.78-.66,1.57-1,2.38l-3,1,1-5h2c.27-.87.54-1.73.81-2.62,2.67-7.58,6.75-12.56,12.19-18.38Z"/>
  <path class="cls-57" d="m665.26,357.63c4.26,1.14,7,3.66,9.44,7.36,1.16,3.07,1.04,5.73.97,9-.02,1.17-.04,2.34-.05,3.55-.02.89-.05,1.78-.07,2.7h-2c.03-.64.07-1.28.11-1.94.18-5.85-.02-10.01-3.11-15.06-4.62-3.3-9.49-3.64-15-4,3.74-2.49,5.41-2.2,9.71-1.61Z"/>
  <path class="cls-18" d="m478.54,257.24c4.85-.34,6.93.5,11,3,1.57.51,3.16.99,4.75,1.44,4.93,1.4,9.77,3.04,14.25,5.56l1,2c-1.44-.28-2.88-.58-4.31-.88-.8-.16-1.6-.32-2.43-.49q-2.26-.63-5.26-2.63c-1.34-.5-2.7-.95-4.06-1.38-5.08-1.63-10-3.6-14.94-5.62v-1Z"/>
  <path class="cls-2" d="m402.54,299.24h4v2c1.18.33,2.35.66,3.56,1,7.24,2.38,13.8,6.32,20.44,10q-1.55.73-4,1c-2.52-1.14-4.81-2.31-7.19-3.69-1.34-.75-2.68-1.49-4.02-2.23-.65-.36-1.3-.72-1.96-1.09-3.51-1.9-7.16-3.44-10.83-4.99v-2Z"/>
  <path class="cls-31" d="m509.54,269.24c5.43-.72,8.71,1.22,13.34,3.7,2.64,1.29,5.14,2.1,7.97,2.86,4,1.1,6.66,2.51,9.69,5.44h-5l-1-3q-1.18.12-2.38.25c-5-.35-8.95-2.22-13.49-4.25-.88-.38-1.76-.76-2.66-1.16-2.16-.94-4.31-1.89-6.46-2.84v-1Z"/>
  <path class="cls-10" d="m344.54,68.24q17.08.41,23,5-3.75,1.12-6,0c-3.27-.49-6.55-.9-9.84-1.3-3.19-.7-4.77-1.53-7.16-3.7Z"/>
  <path class="cls-41" d="m12.54,155.24h1q1.13,7.52.53,9.75c-.66,2.8-.75,5.45-.84,8.32-.04,1.16-.08,2.32-.13,3.52-.04,1.21-.08,2.41-.12,3.66-.04,1.22-.09,2.44-.13,3.7-.11,3.02-.21,6.03-.31,9.05h-1c-.02-4.93-.04-9.86-.05-14.79,0-1.68-.01-3.35-.02-5.03-.01-2.41-.02-4.82-.02-7.23,0-.75-.01-1.5-.02-2.27,0-3.17.1-5.65,1.11-8.68Z"/>
  <path class="cls-34" d="m44.54,82.24l2,1q-.87.74-1.75,1.5c-2.45,2.72-3.76,5.33-5.31,8.61-1.08,2.18-2.44,3.98-3.94,5.89-.7,1.32-1.37,2.65-2,4q-1-2-.55-3.84c.26-.69.53-1.38.8-2.1.25-.69.51-1.38.77-2.09,1.06-2.12,2.29-3.34,3.98-4.97.31-.82.62-1.65.94-2.5,1.22-2.86,2.47-3.86,5.06-5.5Z"/>
  <path class="cls-12" d="m649.54,314.24c-1.41.82-2.83,1.63-4.25,2.44q-1.18.68-2.39,1.37-2.36,1.19-4.53,1.6-2,.42-2.85,2.39c-.32.73-.64,1.45-.98,2.2-1.17,1.45-2.38,2.87-3.62,4.25-.63.71-1.26,1.41-1.91,2.14-.48.53-.96,1.06-1.46,1.61,0-5.44,4.37-9.23,8-13q8.94-6.91,14-5Z"/>
  <path class="cls-52" d="m358.54,224.24l2,1q-1.01.9-2.05,1.83-1.34,1.2-2.7,2.42c-.88.79-1.76,1.58-2.67,2.39-1.64,1.5-3.24,3.05-4.78,4.66q-1.8,1.7-3.8,1.7v3h-2c1.28-6.09,4.34-8.39,9.12-11.88.66-.5,1.32-1,2-1.51,1.62-1.22,3.25-2.42,4.88-3.62Z"/>
  <path class="cls-5" d="m370.54,257.24c1.11,3.34.81,3.76,0,7-.07,2.42-.08,4.83-.06,7.25,0,1.26.02,2.53.03,3.83.01.96.02,1.93.04,2.92-2.98-2.85-3.97-4.1-4.12-8.38.1-2.81.28-4.99,1.12-7.62h2c.33-1.65.66-3.3,1-5Z"/>
  <path class="cls-50" d="m260.54,30.24c1.46.14,2.92.29,4.38.44l2.46.25q2.16.32,4.16,1.32v2c.64.05,1.28.1,1.93.15.83.07,1.65.15,2.5.23.82.07,1.65.14,2.5.21.68.14,1.36.27,2.07.41.33.66.66,1.32,1,2-7.8-.39-13.93-2.76-21-6v-1Z"/>
  <path class="cls-23" d="m85.54,304.24c4.03,1.38,6.73,3.3,10,6,3.83,2.52,7.78,4.26,12,6q-1.62.69-4,1-3.25-1.44-6-3v-2q-1.21-.19-2.44-.38c-.85-.21-1.69-.41-2.56-.62-.33-.66-.66-1.32-1-2-.82-.31-1.65-.62-2.5-.94-.83-.35-1.65-.7-2.5-1.06-.33-.99-.66-1.98-1-3Z"/>
  <path class="cls-54" d="m12.54,167.24h1c.03.57.05,1.15.08,1.74q.69,15.65,1.92,31.26-1.48-1.07-3-3-.34-3.09-.29-6.86c0-.66,0-1.32.01-2,.02-2.11.05-4.22.09-6.33.02-1.43.03-2.86.04-4.29.03-3.51.08-7.01.15-10.52Z"/>
  <path class="cls-47" d="m421.54,93.24c4.51.53,7.42,2.25,11,5v2c-1.98.33-3.96.66-6,1-.25-.64-.49-1.28-.75-1.94q-1.07-2.25-3.38-2.81-.93-.12-1.88-.25c.33-.99.66-1.98,1-3Z"/>
  <path class="cls-59" d="m281.54,37.24c3.96.73,7.77,1.73,11.62,2.88,1.13.33,2.25.65,3.41.99,2.79,1.07,4.12,1.85,5.96,4.13-7.25-.42-13.54-2.68-20-6l-1-2Z"/>
  <path class="cls-58" d="m114.54,20.24h9c-2.87,2.37-5.37,3.65-8.94,4.69-.83.25-1.67.5-2.53.76-2.59.56-4.89.65-7.54.55v-2c3.3-.66,6.6-1.32,10-2v-2Z"/>
  <path class="cls-51" d="m257.54,385.24c9.44.15,16.7,1.41,25,6-3.13,1.56-5.92.11-9.12-.81-1.36-.38-2.72-.75-4.07-1.13-1.25-.35-2.51-.7-3.8-1.06-2.66-.69-5.33-1.35-8-2v-1Z"/>
  <path class="cls-5" d="m385.54,300.24c8.34.9,16.63,3.34,22,10-4.96-1.55-9.64-3.52-14.38-5.62-.74-.32-1.47-.65-2.23-.98-1.8-.79-3.6-1.59-5.39-2.39v-1Z"/>
  <path class="cls-25" d="m46.54,274.24c4.35,2.65,7.72,5.6,11.25,9.25,2.44,2.44,5.06,4.59,7.75,6.75l-2,1c-4.96-3.75-9.72-7.46-14-12-.6-.56-1.2-1.11-1.81-1.69q-1.19-1.31-1.19-3.31Z"/>
  <path class="cls-32" d="m309.54,391.24c-4.18,2.79-7.07,3.16-12,3.19-1.05.01-2.1.03-3.19.04q-2.81-.23-5.81-2.23c.92-.06,1.83-.12,2.77-.18q1.78-.13,3.6-.25c1.18-.08,2.37-.16,3.59-.25q8.26-.86,11.04-.32Z"/>
  <path class="cls-5" d="m555.54,374.24c4.79.58,8.25,2.64,12.31,5.06.65.38,1.29.75,1.96,1.14,1.58.93,3.16,1.86,4.73,2.79q-1.83.61-4,1c-1.43-.9-2.85-1.81-4.21-2.81-3.34-2.22-7.1-3.65-10.79-5.19v-2Z"/>
  <path class="cls-35" d="m598.54,293.24c1.46.14,2.92.29,4.38.44l2.46.25q2.16.32,4.16,1.32v4c-1.65-.42-3.29-.86-4.94-1.31-.92-.24-1.83-.49-2.78-.74-.75-.31-1.51-.63-2.29-.95-.33-.99-.66-1.98-1-3Z"/>
  <path class="cls-19" d="m82.54,41.24c.99.33,1.98.66,3,1q-6.43,5.94-13,12,0-3,2.19-5.38c.93-.87,1.86-1.73,2.81-2.62l2.81-2.81,2.19-2.19Zm-13,13l2,1c-1.32.99-2.64,1.98-4,3,.66-1.32,1.32-2.64,2-4Z"/>
  <path class="cls-18" d="m407.54,96.24c6.73,1.32,11.71,4.7,17,9l1,2q-2.48-.49-5-1v-2c-.66-.23-1.32-.45-2-.69-3.91-1.71-7.52-3.84-11-6.31v-1Z"/>
  <path class="cls-14" d="m712.54,374.24l2,2q-.46,7.18-3,11c-.66-.33-1.32-.66-2-1-.33.66-.66,1.32-1,2,.99-4.84,1.96-9.48,4-14Z"/>
  <path class="cls-59" d="m370.54,278.24c2.14,2.07,4.02,4.24,5.88,6.56,2.49,2.95,4.42,4.2,8.12,5.44l2,3c-6.93-2.09-10.91-4.42-15.08-10.28q-.92-1.72-.92-4.72Z"/>
  <path class="cls-49" d="m65.54,291.24c4.5.51,6.88,2.18,10.31,5.06.88.73,1.77,1.47,2.68,2.22.66.57,1.33,1.13,2.01,1.71l-2,1q-2.62-1.31-5-3v-2c-.58-.08-1.16-.16-1.75-.25-2.87-.96-4.25-2.53-6.25-4.75Z"/>
  <path class="cls-64" d="m111.54,319.24c4.43,1.11,7.4,2.27,11,5,2.63,1.12,5.3,2.05,8,3-2.76,1.38-3.97.6-6.88-.31-.86-.26-1.73-.53-2.62-.8-2.29-.81-4.37-1.75-6.51-2.89v-2c-.99-.33-1.98-.66-3-1v-1Z"/>
  <path class="cls-17" d="m289.54,399.24c1.53.09,3.05.25,4.56.44q1.24.15,2.5.31c.64.08,1.28.17,1.93.25-.33,1.32-.66,2.64-1,4q-5.54-.62-7.88-2.56c-.37-.47-.74-.95-1.12-1.44l1-1Z"/>
  <path class="cls-59" d="m527.54,358.24c4.13.61,7.33,2.04,11,4v2c.64.1,1.28.21,1.94.31.68.23,1.36.45,2.06.69l1,3c-6-2.06-11.64-5.36-16-10Z"/>
  <path class="cls-55" d="m82.54,39.24l2,1q-4.38,5.63-7.62,7.56c-2.85,1.72-3.87,3.51-5.38,6.44l-2-1c3.68-5.63,7.8-9.75,13-14Z"/>
  <path class="cls-33" d="m430.54,313.24c5.16-.64,8.62,1.62,13,4l3.5,1.75c.83.41,1.65.82,2.5,1.25l-2,1c-2.56-.86-5.01-1.78-7.5-2.81-.69-.27-1.38-.55-2.09-.83-2.92-1.19-5.16-2.11-7.41-4.36Z"/>
  <path class="cls-42" d="m54.54,64.24l2,1c-.99,1.98-1.98,3.96-3,6h-2v3q-1.98.99-4,2c.42-4.86,2.5-6.76,6-10l1-2Z"/>
  <path class="cls-29" d="m244.54,379.24c2.31.33,4.62.66,7,1,.33.99.66,1.98,1,3,1.65.33,3.3.66,5,1-3.22,1.07-5.03.96-8.19-.25q-1.04-.38-2.11-.77-1.71-.98-2.71-3.98Z"/>
  <path class="cls-59" d="m202.54,365.24c5.28.54,9.26,1.77,14,4v2c-5.35-.53-9.36-2.47-14-5v-1Z"/>
  <path class="cls-60" d="m380.54,238.24l2,1c-.74,1.44-1.49,2.88-2.25,4.31q-.63,1.2-1.27,2.43c-1.57,2.39-3.11,3.69-5.48,5.26.7-3.15,1.76-6.03,3-9h2l2-4Z"/>
  <path class="cls-18" d="m388.54,293.24c5.21.96,9.6,1.88,14,5-3.3,1.12-5.05.9-8.25-.44-.71-.29-1.41-.57-2.14-.87-.53-.23-1.06-.46-1.61-.69v-2l-2-1Z"/>
  <path class="cls-27" d="m425.54,107.24q4.75.88,7,2v2c.78.27,1.57.54,2.38.81q2.62,1.19,4.62,4.19c-3.6-1.32-6.64-2.92-9.81-5.06-.79-.53-1.58-1.05-2.39-1.6-.59-.44-1.18-.88-1.79-1.34v-1Z"/>
  <path class="cls-25" d="m310.54,49.24c6.12-.5,9.02.75,14,4v1c-5.27.68-9.39-1.75-14-4v-1Z"/>
  <path class="cls-57" d="m410.54,236.24c4.62-.31,6.46.12,10,3,1.98.72,3.98,1.4,6,2-2.87,1.16-4.02.99-7.02,0-1.07-.48-2.13-.95-3.23-1.44-1.08-.47-2.16-.95-3.27-1.43-.82-.37-1.64-.75-2.48-1.13v-1Z"/>
  <path class="cls-36" d="m487.54,338.24c4.56.54,7.97,1.79,12,4-2.47.88-3.64,1.13-6.14.22-.7-.38-1.39-.77-2.11-1.16-.71-.38-1.41-.76-2.14-1.15-.53-.3-1.06-.6-1.61-.91v-1Z"/>
  <path class="cls-8" d="m305.54,401.24c-.33.99-.66,1.98-1,3h-6v-3c2.67-1.33,4.17-.67,7,0Z"/>
  <path class="cls-28" d="m63.54,55.24l2,1c-1.27,1.5-2.54,2.99-3.81,4.49q-1.28,1.51-2.19,3.51h-3c1.56-3.82,4.04-6.19,7-9Z"/>
  <path class="cls-34" d="m190.54,356.24c1.48.45,2.96.91,4.44,1.38.82.26,1.65.51,2.5.77q2.07.85,3.07,2.85c-4.75-.43-6.92-1.33-10-5Z"/>
  <path class="cls-22" d="m403.54,82.24q3.46,1.49,7,3v3q-3,0-5.19-1.88-1.81-2.12-1.81-4.12Z"/>
  <path class="cls-63" d="m356.54,69.24c4.87.45,7.39,1.71,11,5q-2.97-.49-6-1v-2c-1.65-.33-3.3-.66-5-1v-1Z"/>
  <path class="cls-48" d="m321.54,54.24c2.39.58,4.67,1.22,7,2v3q-2.94-.81-6-2c-.33-.99-.66-1.98-1-3Z"/>
  <path class="cls-9" d="m604.54,294.24q2.47.5,5,1v4c-1.32-.33-2.64-.66-4-1l-1-4Z"/>
  <path class="cls-51" d="m530.54,276.24c4.4.5,6.71,2.09,10,5h-5c-.33-.99-.66-1.98-1-3q-2.02-.73-4-1v-1Z"/>
  <path class="cls-30" d="m28.54,246.24c3.09,2.53,3.91,5.22,5,9q-2.5-1.69-5-4-.31-2.75,0-5Z"/>
  <path class="cls-11" d="m416.54,89.24c2.92,1.07,4.78,1.78,7,4-1.65.33-3.3.66-5,1-.66-1.65-1.32-3.3-2-5Z"/>
  <path class="cls-2" d="m112.54,23.24q-1.19,1.5-3,3-2.69.19-5,0v-2c2.93-.98,4.96-1.08,8-1Z"/>
  <path class="cls-53" d="m414.54,238.24c6.49,2.87,12.99,4.01,20,5v2c.64.05,1.29.1,1.95.15,10.33.85,20.46,1.72,30.05,5.85v2q7.03,2.3,14.31,3.5c3.87.52,5.43,1.49,8.69,3.5,1.57.51,3.16.99,4.75,1.44,4.22,1.19,8.06,2.75,12.03,4.59,2.23.97,4.46,1.74,6.78,2.47,2.96.94,5.63,2.04,8.38,3.5,2.9,1.52,5.66,2.52,8.81,3.38,5.14,1.44,9.62,3.75,14.35,6.2,3.26,1.59,6.49,2.76,9.96,3.78q1.94.64,3.91,1.66c2.17,1.05,4.09,1.49,6.46,1.92,3.76.78,6.29,2.02,9.56,4.06,2.09.78,4.21,1.44,6.34,2.11,3.12,1.04,6.16,2.24,9.22,3.45,3.71,1.46,7.29,2.73,11.19,3.56,1.07.29,2.15.58,3.25.88.33.99.66,1.98,1,3,.69.13,1.37.27,2.08.4.9.18,1.8.35,2.73.54.89.17,1.79.35,2.71.53q2.48.54,5.48,1.54,0,3-2.38,5.69-2.62,2.31-4.62,2.31c-.21.58-.41,1.15-.62,1.75q-1.38,2.25-4.25,4.06c-3.67,2.57-5.21,5.27-7.12,9.19-.4.74-.8,1.49-1.21,2.25-5.06,9.58-8.94,19.78-8.88,30.7,0,1.11,0,2.22,0,3.37,0,1.15.02,2.3.03,3.49q0,1.75.01,3.54c.01,2.88.03,5.76.05,8.64h2v2c.64.27,1.28.54,1.94.81q2.06,1.19,3.06,4.19c2.52.92,5.04,1.46,7.65,2.06q2.35.94,3.66,3.04c.23.63.45,1.26.68,1.9-1.77-.14-3.54-.29-5.31-.44-.99-.08-1.97-.16-2.99-.25q-2.7-.32-5.7-1.32v-2c-1.26-.21-2.52-.41-3.81-.62-5.99-1.3-10.96-4.27-16.19-7.38v-2c-.72-.11-1.44-.23-2.18-.35-2.94-.68-5.21-1.7-7.88-3.09-.84-.43-1.67-.86-2.54-1.31-.79-.41-1.59-.83-2.4-1.25-1.33-.67-2.66-1.34-4-2v-2q-1.06-.15-2.14-.3c-3.34-.82-5.74-2.18-8.68-3.95-1.05-.63-2.1-1.26-3.18-1.91-.99-.61-1.98-1.21-3-1.84-.77-.46-1.55-.92-2.35-1.4-3.19-1.93-6.13-3.93-8.96-6.35q-2.54-2.4-5.69-3.25v-2c-2.97-.99-5.94-1.98-9-3v-2c-.6-.12-1.21-.24-1.83-.37-.8-.17-1.6-.34-2.42-.51-.79-.16-1.58-.32-2.39-.49-3.15-.85-5.54-1.79-7.84-4.15-1.84-1.8-3.42-2.37-5.83-3.23-4.37-1.66-8.53-3.62-12.69-5.75-5.55-2.84-11.16-5.33-17-7.5v-2c-1.22-.23-2.43-.45-3.69-.69-8.28-1.84-16.06-4.95-23.31-9.31q-1.92-.69-3.88-1.19c-5.29-1.66-9.98-4.27-14.81-6.94-3.37-1.86-6.7-3.54-10.32-4.87v-2q-1.73.09-3.5.19c-4.71.03-8.2-1.34-12.5-3.19v-2c-1.18-.25-2.35-.49-3.56-.75-6.81-1.74-11.45-4.35-15.3-10.33-.37-.63-.75-1.27-1.13-1.92-.39-.65-.79-1.31-1.2-1.98-2.91-5.25-3.53-9.47-2.3-15.45.17-.52.33-1.03.5-1.56h2c.11-.73.22-1.45.34-2.2.69-2.93,1.72-5.02,3.22-7.61.46-.79.91-1.58,1.38-2.39.35-.59.7-1.18,1.06-1.79h2c.27-.72.54-1.44.81-2.19,1.99-4.72,4.31-8.42,8.19-11.81,10.01-3.34,18.91-.39,28,4Z"/>
</svg>